<svg width="50" height="50" viewBox="0 0 50 50" fill="none" xmlns="http://www.w3.org/2000/svg">
<path d="M24.9285 12C24.6547 14.7374 23.3217 17.4038 22.5311 20.0187C21.5897 23.1326 20.6566 26.2533 20.0098 29.4428C19.4665 32.1215 19.0909 35.0928 18.2324 37.6682" stroke="black" stroke-width="3" stroke-linecap="round"/>
<path d="M24.5565 12.7437C24.5565 14.555 25.12 16.2401 25.6725 17.9517C26.6946 21.1183 27.492 24.5939 29.3925 27.3758C30.4757 28.9614 32.6805 30.4797 33.4845 32.0878" stroke="black" stroke-width="3" stroke-linecap="round"/>
<path d="M16.3724 27.996C22.3444 27.996 28.7886 28.7049 34.6005 27.252" stroke="black" stroke-width="3" stroke-linecap="round"/>
<path d="M27.5325 15.3479C24.6682 15.3479 21.5683 16.1336 19.5344 18.3239C17.8105 20.1805 15.1279 22.8663 14.2231 25.3093C13.133 28.2526 12.0728 31.4462 14.3471 34.134C16.6951 36.909 19.4648 36.552 22.8411 36.552C25.5676 36.552 27.7919 36.572 30.0538 35.064C33.1518 32.9987 32.4631 31.3585 33.2985 28.0166C34.0701 24.9305 33.0399 21.3694 31.6245 18.6959C30.0067 15.64 28.3549 13.8599 24.9285 13.8599" stroke="black" stroke-width="3" stroke-linecap="round"/>
</svg>
